<mxfile host="app.diagrams.net" modified="2023-01-07T09:17:52.318Z" agent="5.0 (Macintosh; Intel Mac OS X 10_15_7) AppleWebKit/537.36 (KHTML, like Gecko) Chrome/108.0.0.0 Safari/537.36" etag="CQy5Z9LzB_e3YE_swB1n" version="20.8.3" type="github">
  <diagram id="prtHgNgQTEPvFCAcTncT" name="Page-1">
    <mxGraphModel dx="954" dy="616" grid="1" gridSize="10" guides="1" tooltips="1" connect="1" arrows="1" fold="1" page="1" pageScale="1" pageWidth="827" pageHeight="1169" math="0" shadow="0">
      <root>
        <mxCell id="0" />
        <mxCell id="1" parent="0" />
        <mxCell id="WediANd1UDlfJTJ_lAEJ-4" style="edgeStyle=orthogonalEdgeStyle;rounded=0;orthogonalLoop=1;jettySize=auto;html=1;exitX=1;exitY=0.5;exitDx=0;exitDy=0;fontSize=24;" edge="1" parent="1" source="WediANd1UDlfJTJ_lAEJ-1">
          <mxGeometry relative="1" as="geometry">
            <mxPoint x="260" y="265" as="targetPoint" />
          </mxGeometry>
        </mxCell>
        <mxCell id="WediANd1UDlfJTJ_lAEJ-1" value="&lt;font style=&quot;font-size: 20px;&quot;&gt;input&lt;/font&gt;" style="rounded=1;whiteSpace=wrap;html=1;fontSize=20;fontFamily=Verdana;" vertex="1" parent="1">
          <mxGeometry x="57.5" y="235" width="120" height="60" as="geometry" />
        </mxCell>
        <mxCell id="WediANd1UDlfJTJ_lAEJ-5" style="edgeStyle=orthogonalEdgeStyle;rounded=0;orthogonalLoop=1;jettySize=auto;html=1;exitX=1;exitY=0.5;exitDx=0;exitDy=0;entryX=0;entryY=0.5;entryDx=0;entryDy=0;fontSize=24;" edge="1" parent="1" target="WediANd1UDlfJTJ_lAEJ-21">
          <mxGeometry relative="1" as="geometry">
            <mxPoint x="370" y="265" as="sourcePoint" />
            <mxPoint x="440" y="265" as="targetPoint" />
          </mxGeometry>
        </mxCell>
        <mxCell id="WediANd1UDlfJTJ_lAEJ-19" value="&lt;span style=&quot;color: rgb(37, 41, 51); font-family: -apple-system, system-ui, &amp;quot;Segoe UI&amp;quot;, Roboto, Ubuntu, Cantarell, &amp;quot;Noto Sans&amp;quot;, sans-serif, &amp;quot;system-ui&amp;quot;, &amp;quot;Helvetica Neue&amp;quot;, &amp;quot;PingFang SC&amp;quot;, &amp;quot;Hiragino Sans GB&amp;quot;, &amp;quot;Microsoft YaHei&amp;quot;, Arial; font-size: 16px; font-style: normal; font-variant-ligatures: normal; font-variant-caps: normal; font-weight: 400; letter-spacing: normal; orphans: 2; text-align: start; text-indent: 0px; text-transform: none; widows: 2; word-spacing: 0px; -webkit-text-stroke-width: 0px; background-color: rgb(255, 255, 255); text-decoration-thickness: initial; text-decoration-style: initial; text-decoration-color: initial; float: none; display: inline !important;&quot;&gt;建模块依赖图，初始化各个模块的 AST 以及模块之间的依赖关系，&lt;/span&gt;" style="text;whiteSpace=wrap;html=1;fontSize=18;fontFamily=Verdana;" vertex="1" parent="1">
          <mxGeometry x="177.5" y="30" width="285" height="50" as="geometry" />
        </mxCell>
        <mxCell id="WediANd1UDlfJTJ_lAEJ-20" value="&lt;span style=&quot;font-size: 18px;&quot;&gt;Build&lt;/span&gt;" style="rounded=1;whiteSpace=wrap;html=1;fontSize=20;fontFamily=Verdana;" vertex="1" parent="1">
          <mxGeometry x="260" y="235" width="120" height="60" as="geometry" />
        </mxCell>
        <mxCell id="WediANd1UDlfJTJ_lAEJ-21" value="&lt;span style=&quot;font-size: 18px;&quot;&gt;Output&lt;/span&gt;" style="rounded=1;whiteSpace=wrap;html=1;fontSize=20;fontFamily=Verdana;" vertex="1" parent="1">
          <mxGeometry x="520" y="235" width="120" height="60" as="geometry" />
        </mxCell>
        <mxCell id="WediANd1UDlfJTJ_lAEJ-26" value="提供了2个方法：generate、write，&lt;br&gt;&lt;code style=&quot;font-family: Menlo, Monaco, Consolas, &amp;quot;Courier New&amp;quot;, monospace; font-size: 0.87em; word-break: break-word; border-radius: 2px; overflow-x: auto; background-color: rgb(255, 245, 245); color: rgb(255, 80, 44); padding: 0.065em 0.4em; text-align: start;&quot;&gt;write&lt;/code&gt;&lt;span style=&quot;color: rgb(37, 41, 51); font-family: -apple-system, system-ui, &amp;quot;Segoe UI&amp;quot;, Roboto, Ubuntu, Cantarell, &amp;quot;Noto Sans&amp;quot;, sans-serif, &amp;quot;system-ui&amp;quot;, &amp;quot;Helvetica Neue&amp;quot;, &amp;quot;PingFang SC&amp;quot;, &amp;quot;Hiragino Sans GB&amp;quot;, &amp;quot;Microsoft YaHei&amp;quot;, Arial; font-size: 16px; text-align: start; background-color: rgb(255, 255, 255);&quot;&gt;和&lt;/span&gt;&lt;code style=&quot;font-family: Menlo, Monaco, Consolas, &amp;quot;Courier New&amp;quot;, monospace; font-size: 0.87em; word-break: break-word; border-radius: 2px; overflow-x: auto; background-color: rgb(255, 245, 245); color: rgb(255, 80, 44); padding: 0.065em 0.4em; text-align: start;&quot;&gt;generate&lt;/code&gt;&lt;span style=&quot;color: rgb(37, 41, 51); font-family: -apple-system, system-ui, &amp;quot;Segoe UI&amp;quot;, Roboto, Ubuntu, Cantarell, &amp;quot;Noto Sans&amp;quot;, sans-serif, &amp;quot;system-ui&amp;quot;, &amp;quot;Helvetica Neue&amp;quot;, &amp;quot;PingFang SC&amp;quot;, &amp;quot;Hiragino Sans GB&amp;quot;, &amp;quot;Microsoft YaHei&amp;quot;, Arial; font-size: 16px; text-align: start; background-color: rgb(255, 255, 255);&quot;&gt;方法唯一的区别在于前者打包完产物会写入磁盘，而后者不会&lt;/span&gt;" style="text;html=1;align=center;verticalAlign=middle;resizable=0;points=[];autosize=1;strokeColor=none;fillColor=none;fontSize=18;fontFamily=Verdana;" vertex="1" parent="1">
          <mxGeometry x="150" y="450" width="620" height="60" as="geometry" />
        </mxCell>
        <mxCell id="WediANd1UDlfJTJ_lAEJ-30" value="&lt;span style=&quot;color: rgb(37, 41, 51); font-family: -apple-system, system-ui, &amp;quot;Segoe UI&amp;quot;, Roboto, Ubuntu, Cantarell, &amp;quot;Noto Sans&amp;quot;, sans-serif, &amp;quot;system-ui&amp;quot;, &amp;quot;Helvetica Neue&amp;quot;, &amp;quot;PingFang SC&amp;quot;, &amp;quot;Hiragino Sans GB&amp;quot;, &amp;quot;Microsoft YaHei&amp;quot;, Arial; font-size: 16px; text-align: start; background-color: rgb(255, 255, 255);&quot;&gt;未进行打包&lt;/span&gt;" style="text;html=1;align=center;verticalAlign=middle;resizable=0;points=[];autosize=1;strokeColor=none;fillColor=none;fontSize=16;fontFamily=Verdana;" vertex="1" parent="1">
          <mxGeometry x="270" y="185" width="100" height="30" as="geometry" />
        </mxCell>
        <mxCell id="WediANd1UDlfJTJ_lAEJ-34" value="" style="edgeStyle=orthogonalEdgeStyle;rounded=0;orthogonalLoop=1;jettySize=auto;html=1;fontFamily=Verdana;fontSize=18;" edge="1" parent="1" source="WediANd1UDlfJTJ_lAEJ-31" target="WediANd1UDlfJTJ_lAEJ-20">
          <mxGeometry relative="1" as="geometry" />
        </mxCell>
        <mxCell id="WediANd1UDlfJTJ_lAEJ-31" value="&lt;span style=&quot;color: rgb(51, 51, 51); font-weight: 700; font-family: Menlo, Monaco, Consolas, &amp;quot;Courier New&amp;quot;, monospace; font-size: 12px; text-align: start;&quot; class=&quot;hljs-keyword&quot;&gt;const&lt;/span&gt;&lt;span style=&quot;color: rgb(51, 51, 51); font-family: Menlo, Monaco, Consolas, &amp;quot;Courier New&amp;quot;, monospace; font-size: 12px; text-align: start; background-color: rgb(248, 248, 248);&quot;&gt; bundle = &lt;/span&gt;&lt;span style=&quot;color: rgb(51, 51, 51); font-weight: 700; font-family: Menlo, Monaco, Consolas, &amp;quot;Courier New&amp;quot;, monospace; font-size: 12px; text-align: start;&quot; class=&quot;hljs-keyword&quot;&gt;await&lt;/span&gt;&lt;span style=&quot;color: rgb(51, 51, 51); font-family: Menlo, Monaco, Consolas, &amp;quot;Courier New&amp;quot;, monospace; font-size: 12px; text-align: start; background-color: rgb(248, 248, 248);&quot;&gt; rollup.&lt;/span&gt;&lt;span style=&quot;color: rgb(153, 0, 0); font-weight: 700; font-family: Menlo, Monaco, Consolas, &amp;quot;Courier New&amp;quot;, monospace; font-size: 12px; text-align: start;&quot; class=&quot;hljs-title function_&quot;&gt;rollup&lt;/span&gt;&lt;span style=&quot;color: rgb(51, 51, 51); font-family: Menlo, Monaco, Consolas, &amp;quot;Courier New&amp;quot;, monospace; font-size: 12px; text-align: start; background-color: rgb(248, 248, 248);&quot;&gt;(inputOptions);&lt;/span&gt;" style="text;html=1;align=center;verticalAlign=middle;resizable=0;points=[];autosize=1;strokeColor=none;fillColor=none;fontSize=18;fontFamily=Verdana;" vertex="1" parent="1">
          <mxGeometry x="130" y="330" width="380" height="40" as="geometry" />
        </mxCell>
        <mxCell id="WediANd1UDlfJTJ_lAEJ-36" value="" style="edgeStyle=orthogonalEdgeStyle;rounded=0;orthogonalLoop=1;jettySize=auto;html=1;fontFamily=Verdana;fontSize=18;" edge="1" parent="1" source="WediANd1UDlfJTJ_lAEJ-35" target="WediANd1UDlfJTJ_lAEJ-21">
          <mxGeometry relative="1" as="geometry" />
        </mxCell>
        <mxCell id="WediANd1UDlfJTJ_lAEJ-35" value="&lt;meta charset=&quot;utf-8&quot;&gt;&lt;span style=&quot;color: rgb(51, 51, 51); font-weight: 700; font-family: Menlo, Monaco, Consolas, &amp;quot;Courier New&amp;quot;, monospace; font-size: 12px; font-style: normal; font-variant-ligatures: normal; font-variant-caps: normal; letter-spacing: normal; orphans: 2; text-align: start; text-indent: 0px; text-transform: none; widows: 2; word-spacing: 0px; -webkit-text-stroke-width: 0px; text-decoration-thickness: initial; text-decoration-style: initial; text-decoration-color: initial;&quot; class=&quot;hljs-keyword&quot;&gt;await&lt;/span&gt;&lt;span style=&quot;color: rgb(51, 51, 51); font-family: Menlo, Monaco, Consolas, &amp;quot;Courier New&amp;quot;, monospace; font-size: 12px; font-style: normal; font-variant-ligatures: normal; font-variant-caps: normal; font-weight: 400; letter-spacing: normal; orphans: 2; text-align: start; text-indent: 0px; text-transform: none; widows: 2; word-spacing: 0px; -webkit-text-stroke-width: 0px; background-color: rgb(248, 248, 248); text-decoration-thickness: initial; text-decoration-style: initial; text-decoration-color: initial; float: none; display: inline !important;&quot;&gt; &lt;/span&gt;&lt;span style=&quot;color: rgb(153, 0, 0); font-weight: 700; font-family: Menlo, Monaco, Consolas, &amp;quot;Courier New&amp;quot;, monospace; font-size: 12px; font-style: normal; font-variant-ligatures: normal; font-variant-caps: normal; letter-spacing: normal; orphans: 2; text-align: start; text-indent: 0px; text-transform: none; widows: 2; word-spacing: 0px; -webkit-text-stroke-width: 0px; text-decoration-thickness: initial; text-decoration-style: initial; text-decoration-color: initial;&quot; class=&quot;hljs-title class_&quot;&gt;Promise&lt;/span&gt;&lt;span style=&quot;color: rgb(51, 51, 51); font-family: Menlo, Monaco, Consolas, &amp;quot;Courier New&amp;quot;, monospace; font-size: 12px; font-style: normal; font-variant-ligatures: normal; font-variant-caps: normal; font-weight: 400; letter-spacing: normal; orphans: 2; text-align: start; text-indent: 0px; text-transform: none; widows: 2; word-spacing: 0px; -webkit-text-stroke-width: 0px; background-color: rgb(248, 248, 248); text-decoration-thickness: initial; text-decoration-style: initial; text-decoration-color: initial; float: none; display: inline !important;&quot;&gt;.&lt;/span&gt;&lt;span style=&quot;color: rgb(153, 0, 0); font-weight: 700; font-family: Menlo, Monaco, Consolas, &amp;quot;Courier New&amp;quot;, monospace; font-size: 12px; font-style: normal; font-variant-ligatures: normal; font-variant-caps: normal; letter-spacing: normal; orphans: 2; text-align: start; text-indent: 0px; text-transform: none; widows: 2; word-spacing: 0px; -webkit-text-stroke-width: 0px; text-decoration-thickness: initial; text-decoration-style: initial; text-decoration-color: initial;&quot; class=&quot;hljs-title function_&quot;&gt;all&lt;/span&gt;&lt;span style=&quot;color: rgb(51, 51, 51); font-family: Menlo, Monaco, Consolas, &amp;quot;Courier New&amp;quot;, monospace; font-size: 12px; font-style: normal; font-variant-ligatures: normal; font-variant-caps: normal; font-weight: 400; letter-spacing: normal; orphans: 2; text-align: start; text-indent: 0px; text-transform: none; widows: 2; word-spacing: 0px; -webkit-text-stroke-width: 0px; background-color: rgb(248, 248, 248); text-decoration-thickness: initial; text-decoration-style: initial; text-decoration-color: initial; float: none; display: inline !important;&quot;&gt;(outputOptions.&lt;/span&gt;&lt;span style=&quot;color: rgb(153, 0, 0); font-weight: 700; font-family: Menlo, Monaco, Consolas, &amp;quot;Courier New&amp;quot;, monospace; font-size: 12px; font-style: normal; font-variant-ligatures: normal; font-variant-caps: normal; letter-spacing: normal; orphans: 2; text-align: start; text-indent: 0px; text-transform: none; widows: 2; word-spacing: 0px; -webkit-text-stroke-width: 0px; text-decoration-thickness: initial; text-decoration-style: initial; text-decoration-color: initial;&quot; class=&quot;hljs-title function_&quot;&gt;map&lt;/span&gt;&lt;span style=&quot;color: rgb(51, 51, 51); font-family: Menlo, Monaco, Consolas, &amp;quot;Courier New&amp;quot;, monospace; font-size: 12px; font-style: normal; font-variant-ligatures: normal; font-variant-caps: normal; font-weight: 400; letter-spacing: normal; orphans: 2; text-align: start; text-indent: 0px; text-transform: none; widows: 2; word-spacing: 0px; -webkit-text-stroke-width: 0px; background-color: rgb(248, 248, 248); text-decoration-thickness: initial; text-decoration-style: initial; text-decoration-color: initial; float: none; display: inline !important;&quot;&gt;(bundle.&lt;/span&gt;&lt;span style=&quot;color: rgb(51, 51, 51); font-family: Menlo, Monaco, Consolas, &amp;quot;Courier New&amp;quot;, monospace; font-size: 12px; font-style: normal; font-variant-ligatures: normal; font-variant-caps: normal; font-weight: 400; letter-spacing: normal; orphans: 2; text-align: start; text-indent: 0px; text-transform: none; widows: 2; word-spacing: 0px; -webkit-text-stroke-width: 0px; text-decoration-thickness: initial; text-decoration-style: initial; text-decoration-color: initial;&quot; class=&quot;hljs-property&quot;&gt;write&lt;/span&gt;&lt;span style=&quot;color: rgb(51, 51, 51); font-family: Menlo, Monaco, Consolas, &amp;quot;Courier New&amp;quot;, monospace; font-size: 12px; font-style: normal; font-variant-ligatures: normal; font-variant-caps: normal; font-weight: 400; letter-spacing: normal; orphans: 2; text-align: start; text-indent: 0px; text-transform: none; widows: 2; word-spacing: 0px; -webkit-text-stroke-width: 0px; background-color: rgb(248, 248, 248); text-decoration-thickness: initial; text-decoration-style: initial; text-decoration-color: initial; float: none; display: inline !important;&quot;&gt;));&lt;/span&gt;" style="text;whiteSpace=wrap;html=1;fontSize=18;fontFamily=Verdana;" vertex="1" parent="1">
          <mxGeometry x="390" y="160" width="380" height="40" as="geometry" />
        </mxCell>
        <mxCell id="WediANd1UDlfJTJ_lAEJ-37" value="真正打包" style="text;html=1;align=center;verticalAlign=middle;resizable=0;points=[];autosize=1;strokeColor=none;fillColor=none;fontSize=16;fontFamily=Verdana;" vertex="1" parent="1">
          <mxGeometry x="535" y="310" width="90" height="30" as="geometry" />
        </mxCell>
      </root>
    </mxGraphModel>
  </diagram>
</mxfile>
